<?xml version="1.0" standalone="no"?>
<!DOCTYPE svg PUBLIC "-//W3C//DTD SVG 20010904//EN"
 "http://www.w3.org/TR/2001/REC-SVG-20010904/DTD/svg10.dtd">
<svg width="277.600000pt" height="23.200000pt" viewBox="0 0 277.600000 23.200000"preserveAspectRatio="xMidYMid meet"><g transform="translate(0.000000,23.200000) scale(0.080000,-0.080000)"stroke="none"><path d="M2805 210 c-256 -21 -1030 -46 -1715 -56 -245 -4 -451 -10 -458 -14 -8 -4 190 -10 440 -14 699 -10 1462 -35 1745 -56 114 -9 138 -8 170 5 42 18 245 55 299 55 71 0 30 16 -68 28 -57 6 -137 21 -178 32 -99 28 -117 29 -235 20z"/></g></svg>
