<?xml version="1.0" standalone="no"?>
<!DOCTYPE svg PUBLIC "-//W3C//DTD SVG 20010904//EN"
 "http://www.w3.org/TR/2001/REC-SVG-20010904/DTD/svg10.dtd">
<svg version="1.0" xmlns="http://www.w3.org/2000/svg"
 width="396.000000pt" height="30.000000pt" viewBox="0 0 396.000000 30.000000"
 preserveAspectRatio="xMidYMid meet">
<metadata>
Created by potrace 1.15, written by Peter Selinger 2001-2017
</metadata>
<g transform="translate(0.000000,30.000000) scale(0.100000,-0.100000)"
fill="#000000" stroke="none">
<path d="M3386 223 c-3 -3 -216 -6 -473 -7 -257 -1 -571 -8 -698 -15 -186 -10
-284 -10 -510 1 -319 15 -749 17 -970 5 -82 -5 -158 -9 -168 -8 -28 0 -9 -19
21 -20 24 -1 23 -3 -8 -9 l-35 -7 30 -3 c29 -2 29 -2 5 -9 -25 -7 -25 -7 6
-14 17 -3 175 -6 350 -7 175 0 400 -6 499 -13 170 -11 647 -15 1210 -8 138 2
465 1 728 -1 l479 -4 19 24 c20 27 26 77 9 87 -13 8 -486 16 -494 8z"/>
</g>
</svg>
