<?xml version="1.0" standalone="no"?>
<!DOCTYPE svg PUBLIC "-//W3C//DTD SVG 20010904//EN"
 "http://www.w3.org/TR/2001/REC-SVG-20010904/DTD/svg10.dtd">
<svg version="1.0" xmlns="http://www.w3.org/2000/svg"
 width="294.000000pt" height="16.000000pt" viewBox="0 0 294.000000 16.000000"
 preserveAspectRatio="xMidYMid meet">
<metadata>
Created by potrace 1.15, written by Peter Selinger 2001-2017
</metadata>
<g transform="translate(0.000000,16.000000) scale(0.100000,-0.100000)"
fill="#000000" stroke="none">
<path d="M95 123 c-38 -10 -65 -35 -65 -59 l0 -24 238 1 c130 0 291 4 357 8
66 4 480 2 920 -3 1142 -14 1350 -11 1362 21 3 8 2 18 -3 23 -17 15 -823 33
-1014 22 -164 -9 -1295 -1 -1640 12 -74 2 -144 2 -155 -1z"/>
</g>
</svg>
